<?xml version="1.0" encoding="utf-8"?>
<!-- Generator: Adobe Illustrator 23.0.6, SVG Export Plug-In . SVG Version: 6.00 Build 0)  -->
<svg version="1.1" id="Layer_1" xmlns="http://www.w3.org/2000/svg" xmlns:xlink="http://www.w3.org/1999/xlink" x="0px" y="0px"
	 viewBox="0 0 50 48.1" style="enable-background:new 0 0 50 48.1;" xml:space="preserve">
<style type="text/css">
	.st0{fill-rule:evenodd;clip-rule:evenodd;}
</style>
<g>
	<path class="st0" d="M29,35.4c2,4.7,7.1,6.8,11.7,4.8c5.3-2.3,8.1-8.7,8.9-14.1c1.1-6.7-0.4-14.6-4.3-20.2
		c-10.1-14.3-27.9,0.8-18,11.7c2.9,3.1,2.8,5.5,1.7,9.4C28.3,29.5,27.6,32.1,29,35.4 M37.5,8.5c2.9,2.2,4.4,7.5,4.8,10.9l2.5-0.3
		C44.3,15,42.5,9.2,39,6.5L37.5,8.5z M8.4,29.3C7.5,26.1,7.1,20.6,9,17.5l-2.1-1.3C4.5,19.9,4.9,26,6,30L8.4,29.3z M21.7,22.1
		C27,8.4,4.9,0.8,0.7,17.8C-1,24.4,0.6,32.4,4,38.2c2.8,4.7,7.7,9.7,13.4,9.9c5.1,0.2,9-3.6,9.2-8.7c0.1-3.5-1.5-5.7-3.1-7.8
		C21,28.3,20.1,26.1,21.7,22.1z M3.4,18.5C6.7,5.4,22.9,11.1,19,21.1c-1.9,4.9-0.8,8.1,2.2,12.2c1.5,1.9,2.7,3.5,2.6,6
		c-0.1,3.5-2.7,6.1-6.3,6c-4.7-0.2-8.9-4.7-11.1-8.5C3.4,31.6,2,24.4,3.4,18.5z M29.5,15.6C22.2,7.6,35.2-3.5,43,7.5
		c3.5,5,4.8,12.2,3.8,18.1c-0.7,4.3-2.9,10.1-7.3,11.9c-3.3,1.4-6.6,0-8-3.3c-1-2.3-0.5-4.2,0.2-6.6C33.2,22.8,33,19.4,29.5,15.6z"
		/>
</g>
</svg>
