<?xml version="1.0" encoding="utf-8"?>
<!-- Generator: Adobe Illustrator 23.0.6, SVG Export Plug-In . SVG Version: 6.00 Build 0)  -->
<svg version="1.1" id="Layer_1" xmlns="http://www.w3.org/2000/svg" xmlns:xlink="http://www.w3.org/1999/xlink" x="0px" y="0px"
	 viewBox="0 0 50 45.5" style="enable-background:new 0 0 50 45.5;" xml:space="preserve">
<style type="text/css">
	.st0{fill-rule:evenodd;clip-rule:evenodd;}
</style>
<g>
	<path class="st0" d="M13.2,20.2c-1,4.5-1,9.7,0.1,14.2c0.6,2.2,1.4,4.3,2.6,6C8.5,41.9,5.3,36.7,3.5,30.2
		c-1.1-3.9-0.9-8.6,0.3-12.4c2-6,8-9.4,14-6.4C15.7,13.3,14.1,16.5,13.2,20.2 M34,33.9c-1.2,4.9-4,8.7-9,8.7c-4.8,0-7.7-3.9-8.9-8.9
		c-1-4.1-1-8.8-0.1-12.9c0.7-3,1.9-5.6,3.4-7.1c2.8-2.7,8.7-2.9,11.4,0c1.4,1.5,2.5,4.2,3.2,7.3C34.9,25.1,35,29.9,34,33.9z
		 M32.2,42.8c9.7,2.8,14.6-3.2,17-11.9c1.2-4.4,1-9.7-0.4-14C46.1,8.4,36.4,4.6,29.4,9.7c-0.9-0.3-2-0.7-3-0.7v-3
		c0-4.1,4.4-4.1,4.9-1.3l2.8-0.5c-1-6.1-10.5-5.7-10.5,1.8v3c-1,0-2.2,0.4-2.9,0.7C13.7,4.6,4,8.4,1.2,16.9c-1.4,4.3-1.6,9.6-0.4,14
		c2.5,8.9,7.5,14.7,17.1,11.9c1.8,1.7,4.2,2.7,7.1,2.7C28,45.5,30.3,44.5,32.2,42.8z M34.3,40.4c1.1-1.7,1.9-3.7,2.5-5.8
		c1.1-4.5,1.1-9.7,0.1-14.2c-0.8-3.9-2.4-7.2-4.5-9.1c6-2.8,11.9,0.5,13.8,6.5c1.2,3.8,1.4,8.5,0.3,12.4
		C44.7,36.5,41.6,41.9,34.3,40.4z"/>
</g>
</svg>
