<?xml version="1.0" encoding="utf-8"?>
<!-- Generator: Adobe Illustrator 23.0.6, SVG Export Plug-In . SVG Version: 6.00 Build 0)  -->
<svg version="1.1" id="Layer_1" xmlns="http://www.w3.org/2000/svg" xmlns:xlink="http://www.w3.org/1999/xlink" x="0px" y="0px"
	 viewBox="0 0 50 50" style="enable-background:new 0 0 50 50;" xml:space="preserve">
<style type="text/css">
	.st0{fill-rule:evenodd;clip-rule:evenodd;}
</style>
<g>
	<path class="st0" d="M26.4,50c0.9-3.7,3.4-6.3,5.9-8.9c4-4.1,7.1-7.9,7.1-14c0-4-1.7-7.9-4.8-10.5c-1.8-1.5-4-2.5-6.5-3
		c0.8-4,2.4-7.4,4.3-11l-2.6-1.3c-1.3,2.5-2.4,4.9-3.4,7.5c-0.3-3-0.7-5.9-1.1-8.8l-2.9,0.4c0.4,3,0.9,5.9,1.1,8.9
		c-1.1-2.9-2.6-5.5-4.2-8.1l-2.5,1.5c2.1,3.5,4,6.8,5,10.9c-2.6,0.5-4.8,1.5-6.6,3c-3.1,2.6-4.8,6.5-4.8,10.5c0,6.1,3.1,9.9,7.1,14
		c2.5,2.6,5.1,5.2,6,8.9L26.4,50L26.4,50z M31.6,20.3c-3.8,1.9-7.6,2.2-11.1-0.5l-1.5,2c4.3,3.3,9.1,3.1,13.8,0.7L31.6,20.3z
		 M25,16.3c3.2,0,5.8,1,7.8,2.6c2.8,2.3,4,5.7,3.7,9.2c-3.3,1.9-6.7,2.4-10.4,1.3l-0.8,2.4c3.6,1.1,7.1,0.9,10.5-0.5
		c-1.1,3.3-3.2,5.4-5.6,7.8c-2,2-3.9,4-5.3,6.6c-1.4-2.5-3.3-4.6-5.3-6.6c-0.6-0.6-1.3-1.3-1.9-2c1.3,0.2,2.6,0.4,4.1,0.5l0.1-2.5
		c-2.2-0.1-4.7-0.5-6.8-1.3c-1-1.7-1.6-3.5-1.8-5.3c1.7,0.7,3.6,1.2,5.5,1.4l0.4-2.5c-2-0.3-4-0.8-5.8-1.7c0.3-2.7,1.6-5.1,3.7-6.8
		C19.2,17.2,21.8,16.3,25,16.3z"/>
</g>
</svg>
